<svg id="Capa_1" enable-background="new 0 0 512.001 512.001" height="512" viewBox="0 0 512.001 512.001" width="512" xmlns="http://www.w3.org/2000/svg"><g><path d="m464.023 166.029c-23.004-14.819-35.385-29.354-41.398-48.601l-6.16-19.715c-1.305-4.175-5.171-7.018-9.545-7.018s-8.24 2.843-9.545 7.018l-6.16 19.716c-6.047 19.352-18.358 33.842-41.166 48.45-21.58 13.823-37.138 34.766-44.114 58.843-18.476-13.191-28.885-26.585-34.238-43.718l-6.151-19.686c-1.305-4.175-5.171-7.018-9.545-7.018s-8.24 2.843-9.545 7.018l-6.151 19.688c-5.4 17.28-15.803 30.677-34.231 43.749-6.948-23.996-22.433-44.903-43.889-58.725-23.004-14.819-35.385-29.354-41.398-48.601l-6.16-19.715c-1.305-4.175-5.171-7.018-9.545-7.018s-8.24 2.843-9.545 7.018l-6.161 19.716c-6.047 19.353-18.358 33.842-41.165 48.45-30.189 19.335-48.211 52.155-48.211 87.794 0 28.027 11.026 54.337 31.048 74.084 19.853 19.58 46.083 30.308 74.015 30.307.502 0 1.008-.003 1.51-.01 17.075-.236 33.573-4.549 48.412-12.58 4.839 17.078 14.054 32.712 27.083 45.563 19.825 19.554 46.021 30.267 73.916 30.267.501 0 1.005-.003 1.507-.01 27.428-.379 53.274-11.302 72.777-30.757 12.989-12.956 22.156-28.69 26.913-45.804 12.199 5.978 31.091 13.328 50.211 13.328.34 0 .681-.002 1.021-.007 27.465-.379 53.346-11.316 72.875-30.797 19.547-19.499 30.453-45.279 30.709-72.593.335-35.933-17.599-69.068-47.974-88.636zm-357.726 172.028c-23.116.323-44.837-8.395-61.204-24.538-16.182-15.959-25.093-37.212-25.093-59.845 0-28.789 14.578-55.313 38.996-70.953 16.12-10.325 35.358-25.167 46.078-50.146 10.505 24.616 29.072 39.184 46.278 50.268 19.386 12.488 32.744 32.1 37.185 54.339-23.675 19.696-37.477 48.705-37.477 79.872 0 2.467.086 4.921.256 7.358-13.454 8.72-28.921 13.422-45.019 13.645zm150.917 63.24c-.407.005-.814.008-1.223.008-22.605 0-43.829-8.675-59.88-24.506-16.154-15.933-25.051-37.15-25.051-59.746 0-28.741 14.554-55.221 38.932-70.835 16.092-10.307 35.294-25.118 46.002-50.047 10.494 24.562 29.027 39.104 46.201 50.168 24.529 15.802 39.012 42.537 38.74 71.517-.423 45.377-37.981 82.808-83.721 83.441zm234.782-146.82c-.425 45.454-38.045 82.947-83.86 83.58-.244.003-.487.005-.733.005-15.625 0-33.53-6.795-46.697-14 .134-1.997.211-4.004.23-6.02.294-31.552-13.515-60.942-37.473-80.863 4.455-22.321 17.875-41.969 37.373-54.458 16.121-10.326 35.359-25.166 46.078-50.146 10.506 24.613 29.074 39.184 46.277 50.267 24.571 15.828 39.078 42.608 38.805 71.635z"/><path d="m256.455 268.143c-18.694 0-33.903 15.209-33.903 33.904v38.228c0 18.695 15.209 33.904 33.903 33.904s33.903-15.209 33.903-33.904v-38.228c0-18.695-15.209-33.904-33.903-33.904zm13.903 72.131c0 7.667-6.237 13.904-13.903 13.904s-13.903-6.237-13.903-13.904v-38.228c0-7.667 6.237-13.904 13.903-13.904s13.903 6.237 13.903 13.904z"/><path d="m436.928 237.913c2.249-3.839 3.54-8.304 3.54-13.065 0-14.295-11.63-25.925-25.926-25.925h-20.104c-5.522 0-10 4.477-10 10v69.209c0 2.66 1.06 5.21 2.944 7.087 1.875 1.866 4.412 2.913 7.056 2.913h.044s18.478-.082 23.57-.082c15.786 0 28.63-12.843 28.63-28.629.001-8.562-3.778-16.257-9.754-21.508zm-22.386-18.99c3.268 0 5.926 2.658 5.926 5.925s-2.658 5.925-5.926 5.925c-1.498 0-4.333.008-7.415.019h-2.688v-11.869zm3.511 49.127c-2.535 0-8.372.02-13.614.041v-17.289c.917-.003 1.841-.007 2.743-.01h10.872c4.759 0 8.63 3.871 8.63 8.629-.001 4.758-3.872 8.629-8.631 8.629z"/><path d="m116.005 206.364c-.034-.091-.069-.181-.106-.271-1.79-4.357-5.989-7.17-10.699-7.17h-.009c-4.714.003-8.913 2.825-10.698 7.188-.031.076-.062.151-.09.228l-25.988 68.235c-1.966 5.161.624 10.938 5.785 12.904 1.172.446 2.374.658 3.558.658 4.029 0 7.827-2.454 9.347-6.444l4.019-10.553h27.951l3.972 10.525c1.949 5.167 7.716 7.776 12.887 5.825 5.167-1.95 7.774-7.72 5.824-12.887zm-17.265 44.774 6.422-16.861 6.364 16.861z"/></g></svg>