<svg id="Capa_1" enable-background="new 0 0 512 512" height="512" viewBox="0 0 512 512" width="512" xmlns="http://www.w3.org/2000/svg"><g><path d="m438.023 93.477c4.143 0 7.5-3.357 7.5-7.5v-31.313c0-16.324-13.281-29.605-29.606-29.605h-75.933v-8.085c0-9.36-7.614-16.974-16.974-16.974h-134.02c-9.359 0-16.974 7.614-16.974 16.974v8.085h-75.933c-16.324 0-29.605 13.281-29.605 29.605v427.73c0 16.324 13.281 29.605 29.605 29.605h319.834c16.325 0 29.606-13.281 29.606-29.605v-366.43c0-4.143-3.357-7.5-7.5-7.5s-7.5 3.357-7.5 7.5v366.431c0 8.054-6.553 14.605-14.606 14.605h-319.834c-8.054 0-14.605-6.552-14.605-14.605v-427.731c0-8.054 6.552-14.605 14.605-14.605h75.934v12.175c0 9.359 7.614 16.974 16.974 16.974h134.019c9.359 0 16.974-7.614 16.974-16.974v-12.175h75.933c8.054 0 14.606 6.552 14.606 14.605v31.312c0 4.143 3.357 7.501 7.5 7.501zm-113.039-41.244c0 1.088-.886 1.974-1.974 1.974h-134.02c-1.088 0-1.974-.886-1.974-1.974v-35.26c0-1.088.886-1.974 1.974-1.974h134.02c1.088 0 1.974.886 1.974 1.974z"/><path d="m207.704 246.397h24.467c6.509 0 11.804-5.295 11.804-11.804v-15.035h15.035c6.509 0 11.804-5.295 11.804-11.803v-24.467c0-6.509-5.295-11.804-11.804-11.804h-15.035v-15.034c0-6.509-5.295-11.804-11.804-11.804h-24.467c-6.508 0-11.803 5.295-11.803 11.804v15.035h-15.035c-6.509 0-11.804 5.295-11.804 11.804v24.467c0 6.508 5.295 11.803 11.804 11.803h15.035v15.035c0 6.509 5.295 11.803 11.803 11.803zm-23.642-41.838v-18.073h15.036c6.508 0 11.803-5.295 11.803-11.803v-15.036h18.073v15.036c0 6.508 5.295 11.803 11.803 11.803h15.036v18.073h-15.036c-6.508 0-11.803 5.295-11.803 11.803v15.036h-18.073v-15.036c0-6.508-5.295-11.803-11.803-11.803z"/><path d="m219.937 114.251c-44.813 0-81.271 36.458-81.271 81.271s36.458 81.271 81.271 81.271c13.759 0 27.369-3.516 39.359-10.166 3.622-2.009 4.93-6.574 2.921-10.196-2.01-3.622-6.574-4.933-10.196-2.921-9.77 5.419-20.864 8.283-32.084 8.283-36.542 0-66.271-29.729-66.271-66.271s29.729-66.271 66.271-66.271 66.271 29.729 66.271 66.271c0 14.729-4.742 28.681-13.715 40.348-2.525 3.284-1.91 7.992 1.373 10.518 3.285 2.524 7.992 1.91 10.518-1.373 11.007-14.312 16.824-31.427 16.824-49.492 0-44.814-36.458-81.272-81.271-81.272z"/><path d="m326.484 153.744h37.063c4.143 0 7.5-3.357 7.5-7.5s-3.357-7.5-7.5-7.5h-37.063c-4.143 0-7.5 3.357-7.5 7.5s3.357 7.5 7.5 7.5z"/><path d="m326.484 188.35h37.063c4.143 0 7.5-3.357 7.5-7.5s-3.357-7.5-7.5-7.5h-37.063c-4.143 0-7.5 3.357-7.5 7.5s3.357 7.5 7.5 7.5z"/><path d="m326.484 222.954h37.063c4.143 0 7.5-3.357 7.5-7.5s-3.357-7.5-7.5-7.5h-37.063c-4.143 0-7.5 3.357-7.5 7.5s3.357 7.5 7.5 7.5z"/><path d="m326.484 257.56h37.063c4.143 0 7.5-3.357 7.5-7.5s-3.357-7.5-7.5-7.5h-37.063c-4.143 0-7.5 3.357-7.5 7.5s3.357 7.5 7.5 7.5z"/><path d="m278.984 284.665c0 4.143 3.357 7.5 7.5 7.5h77.063c4.143 0 7.5-3.357 7.5-7.5s-3.357-7.5-7.5-7.5h-77.063c-4.143 0-7.5 3.357-7.5 7.5z"/><path d="m363.547 311.771h-37.063c-4.143 0-7.5 3.357-7.5 7.5s3.357 7.5 7.5 7.5h37.063c4.143 0 7.5-3.357 7.5-7.5s-3.357-7.5-7.5-7.5z"/><path d="m218.5 319.271c0 4.143 3.357 7.5 7.5 7.5h67.064c4.143 0 7.5-3.357 7.5-7.5s-3.357-7.5-7.5-7.5h-67.064c-4.143 0-7.5 3.357-7.5 7.5z"/><path d="m146.166 326.771h46.414c4.143 0 7.5-3.357 7.5-7.5s-3.357-7.5-7.5-7.5h-46.414c-4.143 0-7.5 3.357-7.5 7.5s3.357 7.5 7.5 7.5z"/><path d="m363.547 346.375h-87.063c-4.143 0-7.5 3.357-7.5 7.5s3.357 7.5 7.5 7.5h87.063c4.143 0 7.5-3.357 7.5-7.5s-3.357-7.5-7.5-7.5z"/><path d="m146.166 361.375h96.414c4.143 0 7.5-3.357 7.5-7.5s-3.357-7.5-7.5-7.5h-96.414c-4.143 0-7.5 3.357-7.5 7.5s3.357 7.5 7.5 7.5z"/><path d="m363.547 380.98h-87.063c-4.143 0-7.5 3.357-7.5 7.5s3.357 7.5 7.5 7.5h87.063c4.143 0 7.5-3.357 7.5-7.5s-3.357-7.5-7.5-7.5z"/><path d="m146.166 395.98h96.414c4.143 0 7.5-3.357 7.5-7.5s-3.357-7.5-7.5-7.5h-96.414c-4.143 0-7.5 3.357-7.5 7.5s3.357 7.5 7.5 7.5z"/><path d="m146.166 430.586h217.382c4.143 0 7.5-3.357 7.5-7.5s-3.357-7.5-7.5-7.5h-217.382c-4.143 0-7.5 3.357-7.5 7.5s3.357 7.5 7.5 7.5z"/><path d="m287.047 27.104h-62.096c-4.143 0-7.5 3.357-7.5 7.5s3.357 7.5 7.5 7.5h62.096c4.143 0 7.5-3.357 7.5-7.5s-3.357-7.5-7.5-7.5z"/><path d="m198.369 472h189.351c9.817 0 17.804-7.986 17.804-17.804v-353.805c0-9.817-7.986-17.804-17.804-17.804h-263.439c-9.817 0-17.804 7.986-17.804 17.804v353.806c0 9.817 7.986 17.804 17.804 17.804h44.101c4.143 0 7.5-3.357 7.5-7.5s-3.357-7.5-7.5-7.5h-44.101c-1.546 0-2.804-1.258-2.804-2.804v-353.806c0-1.546 1.258-2.804 2.804-2.804h263.438c1.546 0 2.804 1.258 2.804 2.804v353.806c0 1.546-1.258 2.804-2.804 2.804h-189.35c-4.143 0-7.5 3.357-7.5 7.5s3.357 7.499 7.5 7.499z"/></g></svg>